<svg xmlns="http://www.w3.org/2000/svg" width="47.404" height="25.534" viewBox="0 0 47.404 25.534">
  <path id="ic_group_add_24px" d="M15.8,14.821H9.876V8.928H5.926v5.892H0v3.928H5.926v5.892h3.95V18.749H15.8Zm19.752,1.964a5.892,5.892,0,1,0-1.8-11.51,9.654,9.654,0,0,1,1.778,5.617,9.844,9.844,0,0,1-1.778,5.617A5.936,5.936,0,0,0,35.553,16.785Zm-9.876,0a5.892,5.892,0,1,0-5.926-5.892A5.884,5.884,0,0,0,25.677,16.785Zm13.076,4.243a7.253,7.253,0,0,1,2.726,5.578v3.928H47.4V26.605C47.4,23.581,42.723,21.715,38.753,21.027Zm-13.076-.314c-3.95,0-11.851,1.964-11.851,5.892v3.928h23.7V26.605C37.528,22.677,29.628,20.713,25.677,20.713Z" transform="translate(0 -5)"/>
</svg>
