<svg xmlns="http://www.w3.org/2000/svg" width="1164" height="676.67" viewBox="0 0 1164 676.67">
  <g id="Group_10" data-name="Group 10" transform="translate(-142 -201.276)">
    <g id="Group_8" data-name="Group 8" transform="translate(1291 -13.724)">
      <g id="Layer_2" data-name="Layer 2" transform="translate(-1149 215)">
        <g id="Layer_1" data-name="Layer 1">
          <path id="Path_31" data-name="Path 31" d="M177.426,484.179H22.239A20.239,20.239,0,0,1,2,463.939H2A20.239,20.239,0,0,1,22.239,443.7H177.426" transform="translate(0.686 152.201)" fill="#ecede2"/>
          <path id="Path_32" data-name="Path 32" d="M29.723,458.759H4a2.014,2.014,0,1,1,0-4.029H29.723a2.015,2.015,0,0,1,0,4.029Z" transform="translate(0.683 155.984)" fill="#1e1e30"/>
          <rect id="Rectangle_9" data-name="Rectangle 9" width="175.426" height="2.686" transform="translate(2.686 608.27)" fill="#dfe0cd"/>
          <rect id="Rectangle_10" data-name="Rectangle 10" width="175.426" height="2.686" transform="translate(2.686 615.079)" fill="#dfe0cd"/>
          <rect id="Rectangle_11" data-name="Rectangle 11" width="175.426" height="2.686" transform="translate(2.686 621.875)" fill="#dfe0cd"/>
          <rect id="Rectangle_12" data-name="Rectangle 12" width="170.054" height="2.686" transform="translate(8.058 628.671)" fill="#dfe0cd"/>
          <rect id="Rectangle_13" data-name="Rectangle 13" width="170.054" height="2.686" transform="translate(8.058 601.474)" fill="#dfe0cd"/>
          <path id="Path_33" data-name="Path 33" d="M111.285,466.179H4.515a2.015,2.015,0,0,1,0-4.029H111.285a2.015,2.015,0,0,1,0,4.029Z" transform="translate(0.858 158.53)" fill="#1e1e30"/>
          <path id="Path_34" data-name="Path 34" d="M40.65,443.53H105.2a7.145,7.145,0,0,1-7.145,7.145H47.835a7.145,7.145,0,0,1-7.145-7.145h-.04Z" transform="translate(13.944 152.142)" fill="#fff"/>
          <path id="Path_35" data-name="Path 35" d="M178.112,487.551H22.925a22.925,22.925,0,0,1,0-45.851H178.112a2.686,2.686,0,1,1,0,5.372H22.925a17.553,17.553,0,1,0,0,35.107H178.112a2.686,2.686,0,0,1,0,5.372Z" transform="translate(0 151.515)" fill="#1e1e30"/>
          <path id="Path_36" data-name="Path 36" d="M827.942,458.354a2.686,2.686,0,0,1-2.686-2.391L815.344,365.3a2.7,2.7,0,0,1,5.372-.591l9.911,90.681a2.686,2.686,0,0,1-2.377,2.955Z" transform="translate(226.199 124.278)" fill="#1e1e30"/>
          <path id="Path_37" data-name="Path 37" d="M815.047,403.039a2.014,2.014,0,0,1-2-1.786L809.9,374.191a2.041,2.041,0,0,1,1.759-2.243l8.394-1.034a2.03,2.03,0,1,1,.5,4.029l-6.42.792,2.914,25.088a2.014,2.014,0,0,1-1.773,2.229Z" transform="translate(224.334 127.228)" fill="#1e1e30"/>
          <path id="Path_38" data-name="Path 38" d="M834.458,456.355h-.336a2.686,2.686,0,0,1-2.337-2.995l11.04-90.681a2.705,2.705,0,1,1,5.372.645L837.13,453.991A2.686,2.686,0,0,1,834.458,456.355Z" transform="translate(231.837 123.591)" fill="#1e1e30"/>
          <path id="Path_39" data-name="Path 39" d="M856.684,456.351h-.322a2.686,2.686,0,0,1-2.337-2.995l11.067-90.668a2.705,2.705,0,1,1,5.372.645L859.37,453.988A2.686,2.686,0,0,1,856.684,456.351Z" transform="translate(239.466 123.594)" fill="#1e1e30"/>
          <rect id="Rectangle_14" data-name="Rectangle 14" width="82.126" height="102.151" transform="translate(1043.141 537.063)" fill="#28f3bb"/>
          <rect id="Rectangle_15" data-name="Rectangle 15" width="13.887" height="98.242" transform="translate(1045.76 538.97)" fill="#1bdda1"/>
          <rect id="Rectangle_16" data-name="Rectangle 16" width="4.714" height="98.914" transform="translate(1097.023 538.97)" fill="#fff"/>
          <rect id="Rectangle_17" data-name="Rectangle 17" width="2.323" height="98.914" transform="translate(1105.82 538.97)" fill="#fff" opacity="0.56"/>
          <rect id="Rectangle_18" data-name="Rectangle 18" width="2.323" height="98.914" transform="translate(1113.18 538.97)" fill="#fff" opacity="0.56"/>
          <path id="Path_40" data-name="Path 40" d="M899.342,505.48H817.216a2.686,2.686,0,0,1-2.686-2.686V400.576a2.686,2.686,0,0,1,2.686-2.686h82.126a2.686,2.686,0,0,1,2.686,2.686V502.794A2.686,2.686,0,0,1,899.342,505.48Zm-79.44-5.372h76.754V403.262H819.9Z" transform="translate(225.925 136.487)" fill="#1e1e30"/>
          <g id="Group_3" data-name="Group 3" transform="translate(927.587 141.609)" opacity="0.15">
            <path id="Path_41" data-name="Path 41" d="M798.214,127.529h-.389a2.015,2.015,0,0,1,0-4.029h.389a2.015,2.015,0,0,1,0,4.029Z" transform="translate(-708.083 -99.245)" fill="#fff"/>
            <path id="Path_42" data-name="Path 42" d="M826.628,133.724H818.57a2.015,2.015,0,0,1,0-4.029H822.6V109.469H759.8V129.7H796.37a2.015,2.015,0,0,1,0,4.029h-40.6V105.44h70.858Z" transform="translate(-721.818 -105.44)" fill="#fff"/>
            <path id="Path_43" data-name="Path 43" d="M794.69,127.529H791.1a2.015,2.015,0,0,1,0-4.029h3.586a2.015,2.015,0,0,1,0,4.029Z" transform="translate(-710.389 -99.245)" fill="#fff"/>
            <path id="Path_44" data-name="Path 44" d="M772.558,169.834H755.77V141.55h49.88a2.015,2.015,0,0,1,0,4.029H759.8v20.226h12.759a2.015,2.015,0,0,1,0,4.029Z" transform="translate(-721.818 -93.053)" fill="#fff"/>
            <path id="Path_45" data-name="Path 45" d="M780.44,163.639h-7.266a2.015,2.015,0,0,1,0-4.029h7.266a2.015,2.015,0,1,1,0,4.029Z" transform="translate(-716.539 -86.858)" fill="#fff"/>
            <path id="Path_46" data-name="Path 46" d="M782.752,163.639H782.6a2.015,2.015,0,0,1,0-4.029h.148a2.015,2.015,0,0,1,0,4.029Z" transform="translate(-713.304 -86.858)" fill="#fff"/>
            <path id="Path_47" data-name="Path 47" d="M816.619,169.834H786.964a2.015,2.015,0,0,1,0-4.029h25.625V145.579H803.7a2.015,2.015,0,0,1,0-4.029h12.987Z" transform="translate(-711.809 -93.053)" fill="#fff"/>
            <path id="Path_48" data-name="Path 48" d="M801.348,151.771H730.49V123.5h70.858Zm-66.829-4.029h62.8V127.529h-62.8Z" transform="translate(-730.49 -99.245)" fill="#fff"/>
          </g>
          <path id="Path_49" data-name="Path 49" d="M188.029,466.607a27.519,27.519,0,1,1,27.519-27.519,27.519,27.519,0,0,1-27.519,27.519Zm0-41.634a14.083,14.083,0,1,1,0,.027Z" transform="translate(45.142 141.179)" fill="#3f3e3e"/>
          <path id="Path_50" data-name="Path 50" d="M188.617,470.093a29.547,29.547,0,1,1,29.547-29.547,29.547,29.547,0,0,1-29.547,29.547Zm0-55.064a25.517,25.517,0,1,0,25.517,25.517A25.517,25.517,0,0,0,188.617,415.029Zm0,41.634a16.116,16.116,0,1,1,16.116-16.116,16.116,16.116,0,0,1-16.116,16.116Zm0-28.2A12.087,12.087,0,1,0,200.7,440.547a12.087,12.087,0,0,0-12.087-12.087Z" transform="translate(44.702 140.984)" fill="#1e1e30"/>
          <rect id="Rectangle_19" data-name="Rectangle 19" width="89.822" height="113.902" rx="5.44" transform="translate(152.474 521.94)" fill="#3f3e3e"/>
          <path id="Path_51" data-name="Path 51" d="M203.942,405.56v88.022a7.306,7.306,0,0,1-7.306,7.306H121.426a7.293,7.293,0,0,1-7.306-7.306V477.331a40.117,40.117,0,0,0,20.589,4.862c13.659-.5,26.511-7.44,36.262-16.989s16.788-21.569,22.724-33.871a178.239,178.239,0,0,0,10.247-25.773Z" transform="translate(39.146 139.118)" fill="#302f2f"/>
          <path id="Path_52" data-name="Path 52" d="M755.91,481.766a31.776,31.776,0,1,1,63.552,0" transform="translate(205.817 154.358)" fill="#cacad8"/>
          <path id="Path_53" data-name="Path 53" d="M816.662,480.35H764.15A106.3,106.3,0,0,0,802.681,454a31.763,31.763,0,0,1,13.981,26.35Z" transform="translate(208.643 155.734)" fill="#a1a1c4"/>
          <g id="Group_4" data-name="Group 4" transform="translate(946.067 421.522)" opacity="0.15">
            <path id="Path_54" data-name="Path 54" d="M786.288,360.234H769.5V331.91h49.88a2.015,2.015,0,0,1,0,4.029H773.569v20.266h12.718a2.015,2.015,0,1,1,0,4.029Z" transform="translate(-735.588 -307.668)" fill="#fff"/>
            <path id="Path_55" data-name="Path 55" d="M794.2,354.029h-7.266a2.015,2.015,0,1,1,0-4.029H794.2a2.015,2.015,0,1,1,0,4.029Z" transform="translate(-730.299 -301.463)" fill="#fff"/>
            <path id="Path_56" data-name="Path 56" d="M796.552,354.029H796.4a2.015,2.015,0,0,1,0-4.029h.148a2.015,2.015,0,0,1,0,4.029Z" transform="translate(-727.051 -301.463)" fill="#fff"/>
            <path id="Path_57" data-name="Path 57" d="M830.378,360.234H800.724a2.015,2.015,0,0,1,0-4.029h25.625V335.939h-8.891a2.015,2.015,0,1,1,0-4.029h12.987Z" transform="translate(-725.569 -307.668)" fill="#fff"/>
            <path id="Path_58" data-name="Path 58" d="M815.095,342.131H744.25V313.86h70.845ZM748.266,338.1h62.8V317.889H748.279Z" transform="translate(-744.25 -313.86)" fill="#fff"/>
          </g>
          <g id="Group_5" data-name="Group 5" transform="translate(17.258 460.282)" opacity="0.15">
            <path id="Path_59" data-name="Path 59" d="M80.614,364.809h-.389a2.015,2.015,0,1,1,0-4.029h.389a2.015,2.015,0,0,1,0,4.029Z" transform="translate(9.57 -336.525)" fill="#fff"/>
            <path id="Path_60" data-name="Path 60" d="M108.988,371H100.93a2.015,2.015,0,1,1,0-4.029h4.029V346.749h-62.8v20.226H78.676a2.015,2.015,0,1,1,0,4.029H38.13V342.72h70.858Z" transform="translate(-4.178 -342.72)" fill="#fff"/>
            <path id="Path_61" data-name="Path 61" d="M77.033,364.809H73.515a2.015,2.015,0,0,1,0-4.029H77.1a2.015,2.015,0,1,1,0,4.029Z" transform="translate(7.268 -336.525)" fill="#fff"/>
            <path id="Path_62" data-name="Path 62" d="M54.918,407.114H38.13V378.83H88.01a2.015,2.015,0,1,1,0,4.029H42.159v20.226H54.918a2.015,2.015,0,1,1,0,4.029Z" transform="translate(-4.178 -330.333)" fill="#fff"/>
            <path id="Path_63" data-name="Path 63" d="M62.807,400.919H55.515a2.015,2.015,0,1,1,0-4.029H62.78a2.015,2.015,0,1,1,0,4.029Z" transform="translate(1.094 -324.138)" fill="#fff"/>
            <path id="Path_64" data-name="Path 64" d="M65.112,400.919h-.148a2.015,2.015,0,1,1,0-4.029h.148a2.015,2.015,0,1,1,0,4.029Z" transform="translate(4.336 -324.138)" fill="#fff"/>
            <path id="Path_65" data-name="Path 65" d="M98.979,407.114H69.325a2.015,2.015,0,1,1,0-4.029H94.949V382.859H86.059a2.015,2.015,0,0,1,0-4.029H99.046Z" transform="translate(5.831 -330.333)" fill="#fff"/>
            <path id="Path_66" data-name="Path 66" d="M83.708,389.051H12.85V360.78H83.708Zm-66.829-4.029h62.8V364.809h-62.8Z" transform="translate(-12.85 -336.525)" fill="#fff"/>
          </g>
          <g id="Group_6" data-name="Group 6" transform="translate(102.54 203.777)" opacity="0.15">
            <path id="Path_67" data-name="Path 67" d="M144.074,173.819h-.389a2.015,2.015,0,0,1,0-4.029h.389a2.015,2.015,0,1,1,0,4.029Z" transform="translate(-53.944 -145.535)" fill="#fff"/>
            <path id="Path_68" data-name="Path 68" d="M172.488,180.014H164.43a2.015,2.015,0,1,1,0-4.029h4.029V155.759h-62.8v20.226h36.517a2.015,2.015,0,1,1,0,4.029H101.63V151.73h70.858Z" transform="translate(-67.678 -151.73)" fill="#fff"/>
            <path id="Path_69" data-name="Path 69" d="M140.55,173.819h-3.586a2.015,2.015,0,0,1,0-4.029h3.586a2.015,2.015,0,0,1,0,4.029Z" transform="translate(-56.249 -145.535)" fill="#fff"/>
            <path id="Path_70" data-name="Path 70" d="M118.418,216.124H101.63V187.84h49.88a2.015,2.015,0,1,1,0,4.029H105.659V212.1h12.759a2.015,2.015,0,1,1,0,4.029Z" transform="translate(-67.678 -139.343)" fill="#fff"/>
            <path id="Path_71" data-name="Path 71" d="M126.3,209.929h-7.266a2.015,2.015,0,0,1,0-4.029H126.3a2.015,2.015,0,0,1,0,4.029Z" transform="translate(-62.399 -133.148)" fill="#fff"/>
            <path id="Path_72" data-name="Path 72" d="M128.6,209.929h-.081a2.015,2.015,0,1,1,0-4.029h.148a2.015,2.015,0,1,1,0,4.029Z" transform="translate(-59.147 -133.148)" fill="#fff"/>
            <path id="Path_73" data-name="Path 73" d="M162.479,216.124H132.825a2.015,2.015,0,0,1,0-4.029h25.625V191.869h-8.891a2.015,2.015,0,1,1,0-4.029h12.987Z" transform="translate(-57.669 -139.343)" fill="#fff"/>
            <path id="Path_74" data-name="Path 74" d="M147.208,198.061H76.35V169.79h70.858Zm-66.829-4.029h62.8V173.819h-62.8Z" transform="translate(-76.35 -145.535)" fill="#fff"/>
          </g>
          <g id="Group_7" data-name="Group 7" transform="translate(552.529)" opacity="0.15">
            <path id="Path_75" data-name="Path 75" d="M499.9,22.089h-.39a2.015,2.015,0,0,1,0-4.029h.389a2.015,2.015,0,1,1,0,4.029Z" transform="translate(-409.773 6.195)" fill="#fff"/>
            <path id="Path_76" data-name="Path 76" d="M528.318,28.284H520.26a2.015,2.015,0,1,1,0-4.029h4.029V4.029h-62.8V24.255h36.517a2.015,2.015,0,1,1,0,4.029H457.46V0h70.858Z" transform="translate(-423.508)" fill="#fff"/>
            <path id="Path_77" data-name="Path 77" d="M496.43,22.089h-3.586a2.015,2.015,0,0,1,0-4.029h3.586a2.015,2.015,0,1,1,0,4.029Z" transform="translate(-412.061 6.195)" fill="#fff"/>
            <path id="Path_78" data-name="Path 78" d="M474.288,64.394H457.5V36.11h49.826a2.015,2.015,0,0,1,0,4.029H461.475V60.365h12.812a2.015,2.015,0,0,1,0,4.029Z" transform="translate(-423.495 12.387)" fill="#fff"/>
            <path id="Path_79" data-name="Path 79" d="M482.13,58.2h-7.266a2.015,2.015,0,0,1,0-4.029h7.266a2.015,2.015,0,1,1,0,4.029Z" transform="translate(-418.229 18.582)" fill="#fff"/>
            <path id="Path_80" data-name="Path 80" d="M484.442,58.2h-.148a2.015,2.015,0,0,1,0-4.029h.148a2.015,2.015,0,0,1,0,4.029Z" transform="translate(-414.994 18.582)" fill="#fff"/>
            <path id="Path_81" data-name="Path 81" d="M518.309,64.394H488.655a2.015,2.015,0,1,1,0-4.029h25.625V40.139h-8.891a2.015,2.015,0,1,1,0-4.029h12.987Z" transform="translate(-413.499 12.387)" fill="#fff"/>
            <path id="Path_82" data-name="Path 82" d="M503.038,46.314H432.18V18.11h70.858Zm-66.829-4.029h62.8V22.139h-62.8Z" transform="translate(-432.18 6.212)" fill="#fff"/>
          </g>
          <path id="Path_83" data-name="Path 83" d="M582.272,516.266H394.557a12.436,12.436,0,0,1-11.55-17.056l34.8-87.3,70.616-19.393,70.616,19.447,34.784,87.3a12.436,12.436,0,0,1-11.55,17Z" transform="translate(103.765 134.645)" fill="#cacad8"/>
          <path id="Path_84" data-name="Path 84" d="M567.338,436.8H399.54l1.625-11.107H565.713Z" transform="translate(109.714 146.023)" fill="#a1a1c4"/>
          <circle id="Ellipse_12" data-name="Ellipse 12" cx="5.882" cy="5.882" r="5.882" transform="translate(522.289 578.602)" fill="#a1a1c4"/>
          <circle id="Ellipse_13" data-name="Ellipse 13" cx="3.008" cy="3.008" r="3.008" transform="translate(542.161 589.333)" fill="#a1a1c4"/>
          <circle id="Ellipse_14" data-name="Ellipse 14" cx="3.922" cy="3.922" r="3.922" transform="translate(529.12 599.527)" fill="#a1a1c4"/>
          <path id="Path_85" data-name="Path 85" d="M582.957,519.64H395.242A15.136,15.136,0,0,1,381.194,498.9l34.8-87.3a2.686,2.686,0,0,1,1.786-1.6l70.616-19.393a2.565,2.565,0,0,1,1.424,0l70.616,19.353a2.686,2.686,0,0,1,1.786,1.6l34.784,87.3a15.136,15.136,0,0,1-14.048,20.723ZM420.451,414.884l-34.3,86.075a9.75,9.75,0,0,0,9.052,13.43H582.957a9.75,9.75,0,0,0,9.052-13.43l-34.287-86.075-68.615-18.8Z" transform="translate(103.076 133.957)" fill="#1e1e30"/>
          <path id="Path_86" data-name="Path 86" d="M243.222,82.58H835.215a22.966,22.966,0,0,1,22.966,22.966V522.528a21.811,21.811,0,0,1-21.824,21.811H242.081a21.811,21.811,0,0,1-21.811-21.811V105.546A22.966,22.966,0,0,1,243.222,82.58Z" transform="translate(48.261 28.327)" fill="#546b76"/>
          <path id="Path_87" data-name="Path 87" d="M857.64,105.532v14.155a22.966,22.966,0,0,0-22.952-22.966H242.7a22.979,22.979,0,0,0-22.966,22.966V105.532A22.966,22.966,0,0,1,242.7,82.58H834.688a22.952,22.952,0,0,1,22.952,22.952Z" transform="translate(48.142 28.327)" fill="#7997a3"/>
          <path id="Path_88" data-name="Path 88" d="M858.18,370.4v53.4a21.811,21.811,0,0,1-21.824,21.811H242.081A21.811,21.811,0,0,1,220.27,423.8V370.4Z" transform="translate(48.261 127.057)" fill="#cacad8"/>
          <rect id="Rectangle_20" data-name="Rectangle 20" width="637.911" height="11.765" transform="translate(268.775 496.329)" fill="#a1a1c4"/>
          <path id="Path_89" data-name="Path 89" d="M858.893,366.768v11.765H220.956s-5.1-32.931,1.074-31.816C330.735,366.325,858.893,366.768,858.893,366.768Z" transform="translate(47.883 118.924)" fill="#3c5159"/>
          <rect id="Rectangle_21" data-name="Rectangle 21" width="572.787" height="318.566" transform="translate(301.389 147.505)" fill="#b4e4f9"/>
          <path id="Path_90" data-name="Path 90" d="M221.156,308.916a2.686,2.686,0,0,1-2.686-2.686V147.686a2.686,2.686,0,0,1,5.372,0V306.23A2.686,2.686,0,0,1,221.156,308.916Z" transform="translate(61.995 49.739)" fill="#1e1e30"/>
          <path id="Path_91" data-name="Path 91" d="M696.136,234.281a2.686,2.686,0,0,1-2.686-2.686V208.146a2.686,2.686,0,0,1,5.372,0V231.6A2.686,2.686,0,0,1,696.136,234.281Z" transform="translate(196.78 70.478)" fill="#1e1e30"/>
          <path id="Path_92" data-name="Path 92" d="M696.136,210a2.686,2.686,0,0,1-2.686-2.686V163.146a2.686,2.686,0,0,1,5.372,0v44.172A2.686,2.686,0,0,1,696.136,210Z" transform="translate(196.78 55.042)" fill="#1e1e30"/>
          <path id="Path_93" data-name="Path 93" d="M859.066,175.519a2.686,2.686,0,0,1-2.686-2.686v-66.6a20.306,20.306,0,0,0-20.28-20.28H244.108a20.307,20.307,0,0,0-20.266,20.28v46.093a2.686,2.686,0,0,1-5.372,0V106.232A25.679,25.679,0,0,1,244.108,80.58H836.1a25.679,25.679,0,0,1,25.652,25.652v66.6A2.686,2.686,0,0,1,859.066,175.519Z" transform="translate(47.613 27.641)" fill="#1e1e30"/>
          <path id="Path_94" data-name="Path 94" d="M859.073,373.772H221.136a2.686,2.686,0,1,1,0-5.372H859.073a2.686,2.686,0,1,1,0,5.372Z" transform="translate(47.607 126.371)" fill="#1e1e30"/>
          <rect id="Rectangle_22" data-name="Rectangle 22" width="572.787" height="13.081" transform="translate(301.389 453.003)" fill="#70bee0"/>
          <path id="Path_95" data-name="Path 95" d="M430.721,428.4H417.64L498.222,109.83H511.3Z" transform="translate(116.569 37.675)" fill="#fff" opacity="0.59"/>
          <path id="Path_96" data-name="Path 96" d="M409.3,428.4H396.22L476.8,109.83h13.081Z" transform="translate(110.591 37.675)" fill="#fff" opacity="0.3"/>
          <path id="Path_97" data-name="Path 97" d="M481.132,428.4H441.19L521.772,109.83h39.942Z" transform="translate(122.452 37.675)" fill="#fff"/>
          <path id="Path_98" data-name="Path 98" d="M245.4,220.022a2.686,2.686,0,0,1-2.686-2.686v-30.89a2.686,2.686,0,0,1,5.372,0v30.89A2.686,2.686,0,0,1,245.4,220.022Z" transform="translate(68.874 63.034)" fill="#1e1e30"/>
          <circle id="Ellipse_15" data-name="Ellipse 15" cx="3.344" cy="3.344" r="3.344" transform="translate(808.76 479.554)" fill="#3c5159"/>
          <circle id="Ellipse_16" data-name="Ellipse 16" cx="0.994" cy="0.994" r="0.994" transform="translate(817.16 479.554)" fill="#3c5159"/>
          <circle id="Ellipse_17" data-name="Ellipse 17" cx="0.994" cy="0.994" r="0.994" transform="translate(812.5 475.485)" fill="#3c5159"/>
          <circle id="Ellipse_18" data-name="Ellipse 18" cx="2.297" cy="2.297" r="2.297" transform="translate(802.008 474.061)" fill="#3c5159"/>
          <circle id="Ellipse_19" data-name="Ellipse 19" cx="2.028" cy="2.028" r="2.028" transform="translate(799.161 481.126)" fill="#3c5159"/>
          <circle id="Ellipse_20" data-name="Ellipse 20" cx="1.034" cy="1.034" r="1.034" transform="translate(794.663 477.473)" fill="#3c5159"/>
          <circle id="Ellipse_21" data-name="Ellipse 21" cx="1.262" cy="1.262" r="1.262" transform="translate(796.627 472.651)" fill="#3c5159"/>
          <circle id="Ellipse_22" data-name="Ellipse 22" cx="2.176" cy="2.176" r="2.176" transform="translate(786.263 479.541)" fill="#3c5159"/>
          <circle id="Ellipse_23" data-name="Ellipse 23" cx="1.356" cy="1.356" r="1.356" transform="translate(824.161 477.473)" fill="#3c5159"/>
          <circle id="Ellipse_24" data-name="Ellipse 24" cx="0.779" cy="0.779" r="0.779" transform="translate(819.87 473.914)" fill="#3c5159"/>
          <circle id="Ellipse_25" data-name="Ellipse 25" cx="1.356" cy="1.356" r="1.356" transform="translate(825.008 470.529)" fill="#3c5159"/>
          <circle id="Ellipse_26" data-name="Ellipse 26" cx="0.94" cy="0.94" r="0.94" transform="translate(819.475 476.774)" fill="#3c5159"/>
          <circle id="Ellipse_27" data-name="Ellipse 27" cx="1.061" cy="1.061" r="1.061" transform="translate(814.909 470.825)" fill="#3c5159"/>
          <circle id="Ellipse_28" data-name="Ellipse 28" cx="1.558" cy="1.558" r="1.558" transform="translate(808.01 468.77)" fill="#3c5159"/>
          <circle id="Ellipse_29" data-name="Ellipse 29" cx="0.336" cy="0.336" r="0.336" transform="translate(810.46 473.914)" fill="#3c5159"/>
          <circle id="Ellipse_30" data-name="Ellipse 30" cx="0.497" cy="0.497" r="0.497" transform="translate(808.922 477.003)" fill="#3c5159"/>
          <circle id="Ellipse_31" data-name="Ellipse 31" cx="2.176" cy="2.176" r="2.176" transform="translate(823.275 482.24)" fill="#3c5159"/>
          <circle id="Ellipse_32" data-name="Ellipse 32" cx="1.679" cy="1.679" r="1.679" transform="translate(832.139 480.172)" fill="#3c5159"/>
          <circle id="Ellipse_33" data-name="Ellipse 33" cx="3.532" cy="3.532" r="3.532" transform="translate(838.427 481.112)" fill="#3c5159"/>
          <circle id="Ellipse_34" data-name="Ellipse 34" cx="3.774" cy="3.774" r="3.774" transform="translate(848.424 481.126)" fill="#3c5159"/>
          <circle id="Ellipse_35" data-name="Ellipse 35" cx="1.652" cy="1.652" r="1.652" transform="translate(856.997 481.717)" fill="#3c5159"/>
          <circle id="Ellipse_36" data-name="Ellipse 36" cx="0.591" cy="0.591" r="0.591" transform="translate(852.238 477.473)" fill="#3c5159"/>
          <circle id="Ellipse_37" data-name="Ellipse 37" cx="1.276" cy="1.276" r="1.276" transform="translate(843.694 473.914)" fill="#3c5159"/>
          <circle id="Ellipse_38" data-name="Ellipse 38" cx="1.289" cy="1.289" r="1.289" transform="translate(838.57 472.114)" fill="#3c5159"/>
          <circle id="Ellipse_39" data-name="Ellipse 39" cx="1.759" cy="1.759" r="1.759" transform="translate(833.739 473.242)" fill="#3c5159"/>
          <circle id="Ellipse_40" data-name="Ellipse 40" cx="1.289" cy="1.289" r="1.289" transform="translate(829.699 475.189)" fill="#3c5159"/>
          <circle id="Ellipse_41" data-name="Ellipse 41" cx="0.766" cy="0.766" r="0.766" transform="translate(842.263 478.507)" fill="#3c5159"/>
          <circle id="Ellipse_42" data-name="Ellipse 42" cx="6.379" cy="6.379" r="6.379" transform="translate(741.886 441.735)" fill="#70bee0"/>
          <circle id="Ellipse_43" data-name="Ellipse 43" cx="1.894" cy="1.894" r="1.894" transform="translate(757.881 441.748)" fill="#70bee0"/>
          <circle id="Ellipse_44" data-name="Ellipse 44" cx="1.907" cy="1.907" r="1.907" transform="translate(748.996 433.985)" fill="#70bee0"/>
          <circle id="Ellipse_45" data-name="Ellipse 45" cx="4.365" cy="4.365" r="4.365" transform="translate(729.062 431.299)" fill="#70bee0"/>
          <circle id="Ellipse_46" data-name="Ellipse 46" cx="3.868" cy="3.868" r="3.868" transform="translate(723.621 444.73)" fill="#70bee0"/>
          <circle id="Ellipse_47" data-name="Ellipse 47" cx="1.974" cy="1.974" r="1.974" transform="translate(715.06 437.8)" fill="#70bee0"/>
          <circle id="Ellipse_48" data-name="Ellipse 48" cx="2.404" cy="2.404" r="2.404" transform="translate(718.824 428.613)" fill="#70bee0"/>
          <circle id="Ellipse_49" data-name="Ellipse 49" cx="4.123" cy="4.123" r="4.123" transform="translate(699.116 441.748)" fill="#70bee0"/>
          <circle id="Ellipse_50" data-name="Ellipse 50" cx="2.579" cy="2.579" r="2.579" transform="translate(771.218 437.8)" fill="#70bee0"/>
          <circle id="Ellipse_51" data-name="Ellipse 51" cx="1.477" cy="1.477" r="1.477" transform="translate(763.053 431.031)" fill="#70bee0"/>
          <circle id="Ellipse_52" data-name="Ellipse 52" cx="2.579" cy="2.579" r="2.579" transform="translate(772.823 424.584)" fill="#70bee0"/>
          <circle id="Ellipse_53" data-name="Ellipse 53" cx="1.786" cy="1.786" r="1.786" transform="translate(762.278 436.457)" fill="#70bee0"/>
          <circle id="Ellipse_54" data-name="Ellipse 54" cx="2.015" cy="2.015" r="2.015" transform="translate(753.599 425.148)" fill="#70bee0"/>
          <circle id="Ellipse_55" data-name="Ellipse 55" cx="2.968" cy="2.968" r="2.968" transform="translate(740.488 421.227)" fill="#70bee0"/>
          <circle id="Ellipse_56" data-name="Ellipse 56" cx="0.645" cy="0.645" r="0.645" transform="translate(745.113 431.017)" fill="#70bee0"/>
          <circle id="Ellipse_57" data-name="Ellipse 57" cx="0.954" cy="0.954" r="0.954" transform="translate(742.206 436.9)" fill="#70bee0"/>
          <circle id="Ellipse_58" data-name="Ellipse 58" cx="4.137" cy="4.137" r="4.137" transform="translate(769.535 446.878)" fill="#70bee0"/>
          <circle id="Ellipse_59" data-name="Ellipse 59" cx="3.196" cy="3.196" r="3.196" transform="translate(786.381 442.943)" fill="#70bee0"/>
          <circle id="Ellipse_60" data-name="Ellipse 60" cx="6.715" cy="6.715" r="6.715" transform="translate(798.374 444.743)" fill="#70bee0"/>
          <circle id="Ellipse_61" data-name="Ellipse 61" cx="7.199" cy="7.199" r="7.199" transform="translate(817.375 444.73)" fill="#70bee0"/>
          <circle id="Ellipse_62" data-name="Ellipse 62" cx="3.129" cy="3.129" r="3.129" transform="translate(833.69 445.885)" fill="#70bee0"/>
          <circle id="Ellipse_63" data-name="Ellipse 63" cx="1.115" cy="1.115" r="1.115" transform="translate(824.651 437.8)" fill="#70bee0"/>
          <circle id="Ellipse_64" data-name="Ellipse 64" cx="2.431" cy="2.431" r="2.431" transform="translate(808.38 431.031)" fill="#70bee0"/>
          <circle id="Ellipse_65" data-name="Ellipse 65" cx="2.444" cy="2.444" r="2.444" transform="translate(798.635 427.619)" fill="#70bee0"/>
          <circle id="Ellipse_66" data-name="Ellipse 66" cx="3.358" cy="3.358" r="3.358" transform="translate(789.427 429.741)" fill="#70bee0"/>
          <circle id="Ellipse_67" data-name="Ellipse 67" cx="2.444" cy="2.444" r="2.444" transform="translate(781.753 433.448)" fill="#70bee0"/>
          <circle id="Ellipse_68" data-name="Ellipse 68" cx="1.45" cy="1.45" r="1.45" transform="translate(805.654 439.774)" fill="#70bee0"/>
          <circle id="Ellipse_69" data-name="Ellipse 69" cx="3.008" cy="3.008" r="3.008" transform="translate(372.515 515.735)" fill="#a1a1c4"/>
          <path id="Path_99" data-name="Path 99" d="M259.4,170.309a2.042,2.042,0,0,1-.792-.161,2.015,2.015,0,0,1-1.048-2.686l18.8-43.554a2.015,2.015,0,0,1,3.693,1.6l-18.8,43.554A2,2,0,0,1,259.4,170.309Z" transform="translate(72.813 42.117)" fill="#1e1e30"/>
          <path id="Path_100" data-name="Path 100" d="M271.229,158.343a1.933,1.933,0,0,1-.806-.175,2.014,2.014,0,0,1-1.048-2.686l9.4-21.77a2.018,2.018,0,0,1,3.707,1.6l-9.4,21.77A1.988,1.988,0,0,1,271.229,158.343Z" transform="translate(76.283 45.448)" fill="#1e1e30"/>
          <circle id="Ellipse_70" data-name="Ellipse 70" cx="3.21" cy="3.21" r="3.21" transform="translate(341.328 207.9)" fill="#1e1e30"/>
          <path id="Path_101" data-name="Path 101" d="M324.882,96.029H260.995a2.015,2.015,0,0,1,0-4.029h63.888a2.015,2.015,0,1,1,0,4.029Z" transform="translate(72.656 31.558)" fill="#1e1e30"/>
          <path id="Path_102" data-name="Path 102" d="M331.874,96.029H319.035a2.015,2.015,0,1,1,0-4.029h12.839a2.015,2.015,0,1,1,0,4.029Z" transform="translate(89.781 31.558)" fill="#1e1e30"/>
          <path id="Path_103" data-name="Path 103" d="M695.936,254.893a2.686,2.686,0,0,1-2.686-2.686V239.6a2.686,2.686,0,1,1,5.372,0v12.611A2.686,2.686,0,0,1,695.936,254.893Z" transform="translate(196.723 81.266)" fill="#1e1e30"/>
          <circle id="Ellipse_71" data-name="Ellipse 71" cx="10.006" cy="10.006" r="10.006" transform="translate(347.834 502.211)" fill="#a1a1c4"/>
          <circle id="Ellipse_72" data-name="Ellipse 72" cx="4.969" cy="4.969" r="4.969" transform="translate(362.961 526.883)" fill="#a1a1c4"/>
          <circle id="Ellipse_73" data-name="Ellipse 73" cx="4.942" cy="4.942" r="4.942" transform="translate(335.404 517.28)" fill="#a1a1c4"/>
          <circle id="Ellipse_74" data-name="Ellipse 74" cx="18.077" cy="18.077" r="18.077" transform="translate(569.693 518.757)" fill="#fff"/>
          <path id="Path_104" data-name="Path 104" d="M464.06,429.483a23.167,23.167,0,1,1,0-46.321,2.686,2.686,0,0,1,0,5.372,17.782,17.782,0,1,0,15.2,8.555,2.688,2.688,0,0,1,4.593-2.794,23.167,23.167,0,0,1-19.8,35.187Z" transform="translate(124.028 131.432)" fill="#1e1e30"/>
          <path id="Path_105" data-name="Path 105" d="M394.515,477.512a1.867,1.867,0,0,1-.712-.134,1.988,1.988,0,0,1-1.168-2.592l5-13.2a2.017,2.017,0,1,1,3.774,1.424l-5.01,13.2A2.028,2.028,0,0,1,394.515,477.512Z" transform="translate(111.309 157.887)" fill="#1e1e30"/>
          <path id="Path_106" data-name="Path 106" d="M401.844,456.8a2.146,2.146,0,0,1-.712-.121,2.014,2.014,0,0,1-1.168-2.606l2.968-7.843a2.015,2.015,0,1,1,3.76,1.424l-2.968,7.843a2.028,2.028,0,0,1-1.88,1.3Z" transform="translate(113.427 152.582)" fill="#1e1e30"/>
          <path id="Path_107" data-name="Path 107" d="M358.663,344.887h-60.02a6.044,6.044,0,1,1,0-12.087h60.02a6.044,6.044,0,1,1,0,12.087Z" transform="translate(82.021 114.159)" fill="#70bee0"/>
          <path id="Path_108" data-name="Path 108" d="M522.877,101.087H462.844a6.044,6.044,0,0,1,0-12.087h60.033a6.044,6.044,0,1,1,0,12.087Z" transform="translate(128.049 30.529)" fill="#7997a3"/>
          <path id="Path_109" data-name="Path 109" d="M613.8,101.087H586.014a6.044,6.044,0,1,1,0-12.087H613.8a6.044,6.044,0,1,1,0,12.087Z" transform="translate(163.571 30.529)" fill="#7997a3"/>
          <rect id="Rectangle_23" data-name="Rectangle 23" width="1150.18" height="36.101" rx="13.44" transform="translate(11.134 637.884)" fill="#ffccc0"/>
          <path id="Path_110" data-name="Path 110" d="M1158.47,491.305c-.007,9.966-7.725,18.043-17.248,18.05H25.538c-9.526,0-17.248-8.081-17.248-18.05a18.5,18.5,0,0,1,2.323-9.025,17.086,17.086,0,0,0,14.925,9.025H1141.222a17.186,17.186,0,0,0,14.938-9.025A18.49,18.49,0,0,1,1158.47,491.305Z" transform="translate(2.844 165.435)" fill="#f29681"/>
          <path id="Path_111" data-name="Path 111" d="M189.466,485.4H100.021a4.7,4.7,0,0,1,0-9.4h89.446a4.7,4.7,0,1,1,0,9.4Z" transform="translate(32.697 163.28)" fill="#fdfdff"/>
          <path id="Path_112" data-name="Path 112" d="M208.2,485.4H185.911a4.7,4.7,0,1,1,0-9.4H208.2a4.7,4.7,0,1,1,0,9.4Z" transform="translate(51.184 163.28)" fill="#fdfdff"/>
          <path id="Path_113" data-name="Path 113" d="M692.536,494.3H603.091a4.7,4.7,0,0,1,0-9.4h89.445a4.7,4.7,0,0,1,0,9.4Z" transform="translate(166.842 166.333)" fill="#f29681"/>
          <path id="Path_114" data-name="Path 114" d="M711.285,494.3H688.991a4.7,4.7,0,0,1,0-9.4h22.294a4.7,4.7,0,1,1,0,9.4Z" transform="translate(193.281 166.333)" fill="#f29681"/>
          <path id="Path_115" data-name="Path 115" d="M446.336,504.241H356.891a4.7,4.7,0,0,1,0-9.4h89.446a4.7,4.7,0,1,1,0,9.4Z" transform="translate(98.197 169.743)" fill="#dd7b6b"/>
          <path id="Path_116" data-name="Path 116" d="M465.085,504.241H442.791a4.7,4.7,0,1,1,0-9.4h22.294a4.7,4.7,0,1,1,0,9.4Z" transform="translate(123.74 169.743)" fill="#dd7b6b"/>
          <path id="Path_117" data-name="Path 117" d="M106.72,504.241H17.261a4.7,4.7,0,0,1,0-9.4H106.72a4.7,4.7,0,1,1,0,9.4Z" transform="translate(4.308 169.743)" fill="#dd7b6b"/>
          <path id="Path_118" data-name="Path 118" d="M125.441,504.241H103.2a4.7,4.7,0,0,1,0-9.4h22.294a4.7,4.7,0,1,1,0,9.4Z" transform="translate(33.788 169.743)" fill="#dd7b6b"/>
          <path id="Path_119" data-name="Path 119" d="M883.276,504.241H793.831a4.7,4.7,0,0,1,0-9.4h89.445a4.7,4.7,0,1,1,0,9.4Z" transform="translate(217.212 169.743)" fill="#dd7b6b"/>
          <path id="Path_120" data-name="Path 120" d="M902.028,504.241H879.721a4.7,4.7,0,0,1,0-9.4h22.307a4.7,4.7,0,1,1,0,9.4Z" transform="translate(246.675 169.743)" fill="#dd7b6b"/>
          <path id="Path_121" data-name="Path 121" d="M1142.023,514.433H26.109c-10.946,0-19.819-9.284-19.819-20.736s8.873-20.736,19.819-20.736H335.936a2.689,2.689,0,0,1,0,5.372H26.109c-8.11,0-14.685,6.879-14.685,15.364S18,509.06,26.109,509.06H1142.023c8.11,0,14.684-6.879,14.684-15.364s-6.574-15.364-14.684-15.364H424.583a2.689,2.689,0,0,1,0-5.372h717.44c10.946,0,19.819,9.284,19.819,20.736S1152.969,514.433,1142.023,514.433Z" transform="translate(2.158 162.238)" fill="#1e1e30"/>
          <path id="Path_122" data-name="Path 122" d="M300.739,478.372H281.346a2.686,2.686,0,1,1,0-5.372h19.393a2.686,2.686,0,0,1,0,5.372Z" transform="translate(78.807 162.251)" fill="#1e1e30"/>
          <path id="Path_123" data-name="Path 123" d="M318.495,478.372h-9.979a2.686,2.686,0,1,1,0-5.372h9.979a2.686,2.686,0,1,1,0,5.372Z" transform="translate(86.635 162.251)" fill="#1e1e30"/>
          <path id="Path_124" data-name="Path 124" d="M815.9,485.137a2.686,2.686,0,0,1-2.686-2.686,29.117,29.117,0,0,0-42.977-25.6,2.686,2.686,0,1,1-2.552-4.727,34.489,34.489,0,0,1,50.86,30.326,2.686,2.686,0,0,1-2.646,2.686Z" transform="translate(209.374 153.673)" fill="#1e1e30"/>
          <path id="Path_125" data-name="Path 125" d="M756.6,482.153a2.686,2.686,0,0,1-2.686-2.686,34.474,34.474,0,0,1,7.667-21.675,2.686,2.686,0,1,1,4.165,3.383,29.17,29.17,0,0,0-6.46,18.292A2.686,2.686,0,0,1,756.6,482.153Z" transform="translate(205.131 156.658)" fill="#1e1e30"/>
          <rect id="Rectangle_24" data-name="Rectangle 24" width="7.615" height="115.661" transform="translate(178.784 522.222)" fill="#fff"/>
          <rect id="Rectangle_25" data-name="Rectangle 25" width="3.653" height="115.661" transform="translate(191.744 522.222)" fill="#fff" opacity="0.39"/>
          <path id="Path_126" data-name="Path 126" d="M147.515,400.071a2.015,2.015,0,0,1-2.015-2.015V367.919a15.069,15.069,0,0,1,15.055-15.042,13.041,13.041,0,0,0,0-26.068,2.015,2.015,0,1,1,0-4.029,17.07,17.07,0,0,1,0,34.126,11.026,11.026,0,0,0-11.026,11.013v30.137a2.015,2.015,0,0,1-2.015,2.015Z" transform="translate(49.91 110.722)" fill="#1e1e30"/>
          <path id="Path_127" data-name="Path 127" d="M135.3,379.081a2.015,2.015,0,0,1-2.015-2.015v-29.8a2.015,2.015,0,0,1,4.029,0v29.8A2.014,2.014,0,0,1,135.3,379.081Z" transform="translate(45.722 118.43)" fill="#1e1e30"/>
          <path id="Path_128" data-name="Path 128" d="M159.515,390.8a2.014,2.014,0,0,1-2.015-2.015V358.975a2.015,2.015,0,1,1,4.029,0V388.79a2.015,2.015,0,0,1-2.015,2.015Z" transform="translate(54.027 122.447)" fill="#1e1e30"/>
          <path id="Path_129" data-name="Path 129" d="M164.037,424.668h0a3.747,3.747,0,0,1-3.747-3.747V389.36h7.494v31.561a3.747,3.747,0,0,1-3.747,3.747Z" transform="translate(54.984 133.561)" fill="#dd9742"/>
          <path id="Path_130" data-name="Path 130" d="M180.282,390.87a6.608,6.608,0,0,1-13.2,0" transform="translate(57.313 134.079)" fill="#dd9742"/>
          <rect id="Rectangle_26" data-name="Rectangle 26" width="8.824" height="33.307" rx="3.28" transform="translate(161.391 537.412)" fill="#fff" opacity="0.23"/>
          <path id="Path_131" data-name="Path 131" d="M242.638,329.482a3.358,3.358,0,0,1-3.358-3.358V258.638a3.358,3.358,0,0,1,6.715,0v67.447a3.358,3.358,0,0,1-3.358,3.4Z" transform="translate(67.885 87.568)" fill="#3c5159"/>
          <path id="Path_132" data-name="Path 132" d="M674.578,219.359A3.357,3.357,0,0,1,671.22,216V148.528a3.358,3.358,0,0,1,6.715,0V216A3.357,3.357,0,0,1,674.578,219.359Z" transform="translate(190.428 49.797)" fill="#3c5159"/>
          <path id="Path_133" data-name="Path 133" d="M674.578,339.162a3.357,3.357,0,0,1-3.357-3.358V268.318a3.358,3.358,0,0,1,6.715,0V335.8A3.357,3.357,0,0,1,674.578,339.162Z" transform="translate(190.428 90.888)" fill="#3c5159"/>
          <path id="Path_134" data-name="Path 134" d="M668.82,291.548a4.7,4.7,0,0,1-4.7-4.7V219.361a4.7,4.7,0,0,1,9.4,0v67.487a4.7,4.7,0,0,1-4.7,4.7Z" transform="translate(188.326 73.634)" fill="#70bee0"/>
          <path id="Path_135" data-name="Path 135" d="M668.82,139.534a4.7,4.7,0,0,1-4.7-4.7V121.081a4.7,4.7,0,0,1,9.4,0v13.753a4.7,4.7,0,0,1-4.7,4.7Z" transform="translate(188.326 39.921)" fill="#70bee0"/>
          <path id="Path_136" data-name="Path 136" d="M249.2,258.134a4.7,4.7,0,0,1-4.7-4.7V239.681a4.7,4.7,0,0,1,9.4,0v13.753a4.7,4.7,0,0,1-4.7,4.7Z" transform="translate(69.333 80.604)" fill="#70bee0"/>
          <path id="Path_137" data-name="Path 137" d="M602.993,428.451H589.2a4.7,4.7,0,1,1,0-9.4h13.766a4.7,4.7,0,1,1,0,9.4Z" transform="translate(165.347 143.745)" fill="#a1a1c4"/>
          <path id="Path_138" data-name="Path 138" d="M249.2,333.681a4.7,4.7,0,0,1-4.7-4.7V315.2a4.7,4.7,0,0,1,9.4,0v13.753a4.7,4.7,0,0,1-4.7,4.727Z" transform="translate(69.333 106.51)" fill="#70bee0"/>
          <path id="Path_139" data-name="Path 139" d="M249.2,132.917a4.7,4.7,0,0,1-4.7-4.7V114.451a4.7,4.7,0,0,1,9.4,0v13.766a4.7,4.7,0,0,1-4.7,4.7Z" transform="translate(69.333 37.647)" fill="#70bee0"/>
          <path id="Path_140" data-name="Path 140" d="M818.012,430.925H245.225a2.015,2.015,0,0,1-2.014-2.015V257.916a2.015,2.015,0,0,1,4.029,0V426.9H816V112.359H247.239v79.588a2.015,2.015,0,1,1-4.029,0v-81.6a2.015,2.015,0,0,1,2.015-2.015H818.012a2.015,2.015,0,0,1,2.015,2.015V428.87a2.015,2.015,0,0,1-2.015,2.055Z" transform="translate(56.161 37.16)" fill="#1e1e30"/>
          <path id="Path_141" data-name="Path 141" d="M149.15,390.21h6.876v16.116a3.438,3.438,0,0,1-3.438,3.438h0a3.438,3.438,0,0,1-3.438-3.438Z" transform="translate(51.162 133.852)" fill="#dd9742"/>
          <path id="Path_142" data-name="Path 142" d="M197.348,506.924H122.139a9.992,9.992,0,0,1-9.992-9.979v-35.59a2.686,2.686,0,0,1,5.372,0v35.55a4.62,4.62,0,0,0,4.62,4.607h75.209a4.62,4.62,0,0,0,4.593-4.607V397.642a4.633,4.633,0,0,0-4.62-4.62H122.112a4.633,4.633,0,0,0-4.62,4.62v28.271a2.686,2.686,0,0,1-5.372,0V397.642a10.006,10.006,0,0,1,9.992-9.992h75.209a10.006,10.006,0,0,1,9.992,9.992v99.263a9.992,9.992,0,0,1-9.965,10.019Z" transform="translate(38.46 132.974)" fill="#1e1e30"/>
          <path id="Path_143" data-name="Path 143" d="M114.826,439.277a2.686,2.686,0,0,1-2.686-2.686V425.216a2.686,2.686,0,0,1,5.372,0v11.375A2.686,2.686,0,0,1,114.826,439.277Z" transform="translate(38.467 144.939)" fill="#1e1e30"/>
          <circle id="Ellipse_75" data-name="Ellipse 75" cx="10.596" cy="10.596" r="10.596" transform="translate(1099.092 464.875)" fill="#dc166d"/>
          <path id="Path_144" data-name="Path 144" d="M869.3,369.862a12.611,12.611,0,1,1,12.611-12.611A12.611,12.611,0,0,1,869.3,369.862Zm0-21.179a8.568,8.568,0,1,0,6.068,2.5,8.582,8.582,0,0,0-6.068-2.5Z" transform="translate(240.387 118.22)" fill="#1e1e30"/>
          <path id="Path_145" data-name="Path 145" d="M851.863,401.042h-.242a2,2,0,0,1-1.759-2.229l2.9-25.088-6.406-.792a2.029,2.029,0,1,1,.484-4.029l8.407,1.034a2.028,2.028,0,0,1,1.746,2.243l-3.129,27.062A2.014,2.014,0,0,1,851.863,401.042Z" transform="translate(236.229 126.539)" fill="#1e1e30"/>
          <path id="Path_146" data-name="Path 146" d="M688.919,439.941H659.372a5.372,5.372,0,0,1,0-10.744h29.547c5.976,0,12.772-6.42,12.772-12.087V400.442a5.372,5.372,0,1,1,10.744,0v16.694C712.368,428.646,700.724,439.941,688.919,439.941Z" transform="translate(183.811 135.519)" fill="#fff"/>
          <path id="Path_147" data-name="Path 147" d="M285.789,432.314H256.242a5.372,5.372,0,0,1,0-10.744h29.547a5.372,5.372,0,0,1,0,10.744Z" transform="translate(70.748 144.61)" fill="#fff"/>
          <path id="Path_148" data-name="Path 148" d="M837.256,486.166H242.967a24.524,24.524,0,0,1-24.5-24.5V283.516a2.686,2.686,0,1,1,5.372,0V461.669a19.138,19.138,0,0,0,19.125,19.125H837.256a19.152,19.152,0,0,0,19.125-19.125V262.686a2.686,2.686,0,1,1,5.372,0V461.669A24.523,24.523,0,0,1,837.256,486.166Z" transform="translate(47.613 89.187)" fill="#1e1e30"/>
        </g>
      </g>
    </g>
    <g id="Group_1" data-name="Group 1" transform="translate(364.307 350.44)">
      <g id="Group_2" data-name="Group 2" transform="translate(80.511 0.416)">
        <rect id="Rectangle_6" data-name="Rectangle 6" width="568.893" height="315.264" transform="translate(0.212 0.289)" fill="#e6e6e6"/>
        <rect id="Rectangle_7" data-name="Rectangle 7" width="550.238" height="276.928" transform="translate(9.54 30.336)" fill="#fff"/>
        <rect id="Rectangle_8" data-name="Rectangle 8" width="568.893" height="21.66" transform="translate(0)" fill="#6c63ff"/>
        <ellipse id="Ellipse_1" data-name="Ellipse 1" cx="3.918" cy="4.015" rx="3.918" ry="4.015" transform="translate(11.79 7.059)" fill="#fff"/>
        <ellipse id="Ellipse_2" data-name="Ellipse 2" cx="3.918" cy="4.015" rx="3.918" ry="4.015" transform="translate(26.66 7.059)" fill="#fff"/>
        <ellipse id="Ellipse_3" data-name="Ellipse 3" cx="3.918" cy="4.015" rx="3.918" ry="4.015" transform="translate(41.531 7.059)" fill="#fff"/>
        <path id="Path_1" data-name="Path 1" d="M949.2,762.563s1.8,25.431.979,26.926,14.4,28.358,14.4,28.358l24.333-23.369s-1.474-32.326.094-33.784S949.2,762.563,949.2,762.563Z" transform="translate(-765.273 -655.798)" fill="#a0616a"/>
        <ellipse id="Ellipse_4" data-name="Ellipse 4" cx="28.444" cy="29.147" rx="28.444" ry="29.147" transform="translate(175.884 69.415)" fill="#a0616a"/>
        <path id="Path_2" data-name="Path 2" d="M942.827,855.468l-2.918-1.68-14.4-13.29s-1.434-.548-1.651,4.049l-.217,4.6-9.3,6.451-.427,104.417,64.3,3.183,2.706-105.071L966.4,848.188l-2.661-5.812-16.355,11.782Z" transform="translate(-740.57 -714.492)" fill="#fff"/>
        <path id="Path_3" data-name="Path 3" d="M912.583,865.339l-7.111,106.287H798.1c-13.683-16.6-24.611-102.007-12.949-104.539,3.81-1.35,29.641-9.665,29.641-9.665s7.717-4.993,10.18-9.473a34.64,34.64,0,0,1,5.509-7.279l.015-.015.008-.015c.06-.061.112-.123.172-.176a.1.1,0,0,1,.052-.046c.075-.084.15-.161.232-.238v.115l-.546,19.437,20.569,72.438s5.793-43.483,11.677-57.013c3.316-7.624,5.052-17.036,5.936-23.8.681-5.239.853-8.882.853-8.882l.082.107v.008a.007.007,0,0,0,0,.006l.005,0c.09.115.232.307.442.568l.007.008c1.722,2.209,7.246,8.9,10.988,9.082,4.484.222,16.8,9.281,16.8,9.281C903.789,861.059,912.583,865.339,912.583,865.339Z" transform="translate(-649.655 -714.608)" fill="#2f2e41"/>
        <path id="Path_4" data-name="Path 4" d="M1111.433,1133.1s8.1-28.78,19.919-25.123-1.156,24.516-1.156,24.516Z" transform="translate(-873.151 -901.465)" fill="#a0616a"/>
        <path id="Path_5" data-name="Path 5" d="M900.19,1204.031s-26.415-12.826-20.991-24.19,23.427,5.116,23.427,5.116Z" transform="translate(-719.393 -949.873)" fill="#a0616a"/>
        <path id="Path_6" data-name="Path 6" d="M952.51,1214.634H946.17a62.9,62.9,0,0,0-7.74-1.457c-.6-.031-.793-.99-.719-2.508a48.773,48.773,0,0,1,1.205-7.448c.906-4.142,2.118-8.621,2.9-11.475v-.007c.457-1.665.756-2.769.764-2.93.022-.506,4.169.192,7.029.729,1.5.284,2.65.522,2.65.522l.142,13.829Z" transform="translate(-758.952 -958.871)" fill="#fff"/>
        <path id="Path_7" data-name="Path 7" d="M1063.573,1016.311c-1.826,5.3-3.144,9.5-4.222,12.694H976.318c-.277-2.93-.629-6.942-.853-10.915-.367-6.359-.427-12.618.584-14.182a.716.716,0,0,1,.449-.36c1.939-.391,23.84-.744,39.349-.951,2.156-.023,4.184-.046,6.026-.069,5.591-.069,9.379-.107,9.379-.107s.3-10.493,1.213-23.87c1.609-23.517,5.127-55.955,12.3-56.093l5.24.261s2.987.146,4.266,4.817S1068.783,1001.208,1063.573,1016.311Z" transform="translate(-779.244 -772.393)" fill="#2f2e41"/>
        <path id="Path_8" data-name="Path 8" d="M912.822,606.745l-5.3-2.276s11.816-10.992,27.451-9.211l-4.2-4.738s10.971-3.484,20.275,7.547c4.891,5.8,10.545,12.61,13.915,20.135l5.773.286-2.642,4.819,8.2,5.356-8.614-1.315a25.518,25.518,0,0,1-1.422,12.749l-2.221,5.427s-7.083-16.458-6.989-18.467l-.237,5.022s-5.178-4.786-5.036-7.8l-3.106,3.37-1.21-5.6-18.393,4.626,3.153-4.374-11.342.949,4.671-5.306s-13.049,5.9-13.8,11.4-7.453,12.215-7.453,12.215l-2.7-5.167S898.255,613.574,912.822,606.745Z" transform="translate(-731.819 -534.84)" fill="#2f2e41"/>
        <path id="Path_9" data-name="Path 9" d="M1044.026,777.311H597.736V560.642h446.289ZM599.2,776.047h443.353V561.906H599.2Z" transform="translate(-542.393 -511.978)" fill="#e6e6e6"/>
        <path id="Path_10" data-name="Path 10" d="M1555.972,634.561c-3.545-6.138-10.559-6.425-10.559-6.425s-6.835-.9-11.219,8.453c-4.087,8.714-9.727,17.128-.908,19.168l1.593-5.081.987,5.459a33.663,33.663,0,0,0,3.773.066c9.444-.312,18.438.091,18.149-3.381C1557.4,648.2,1559.383,640.468,1555.972,634.561Z" transform="translate(-1148.068 -561.637)" fill="#2f2e41"/>
        <path id="Path_11" data-name="Path 11" d="M1565.436,699.464a3.915,3.915,0,0,1-.323,2.02c-.664,1.189-2.286,1.367-3.261,2.3-1.026.986-1.142,2.585-1.191,4.025a11.385,11.385,0,0,0,.442,4.463,10.935,10.935,0,0,0,1.237,2.178q.893,1.319,1.8,2.627a11.281,11.281,0,0,0,1.08,1.388,9.126,9.126,0,0,0,4.064,2.209,4.964,4.964,0,0,0,2.952.2,5.636,5.636,0,0,0,1.717-1.082,9.3,9.3,0,0,0,1.943-1.93,9.155,9.155,0,0,0,1.188-4.116,91,91,0,0,0,.572-12.8,3.2,3.2,0,0,0-.239-1.36c-.494-.988-1.817-1.2-2.514-2.049a4.176,4.176,0,0,1-.615-2.713l.013-2.417a1.035,1.035,0,0,0-.115-.589.964.964,0,0,0-.677-.323,22.271,22.271,0,0,0-4.437-.3c-1.2.038-3.514-.065-4.555.622-.945.624.238,2.346.457,3.314A22.122,22.122,0,0,1,1565.436,699.464Z" transform="translate(-1170.497 -606.364)" fill="#ffb8b8"/>
        <ellipse id="Ellipse_5" data-name="Ellipse 5" cx="9.532" cy="9.768" rx="9.532" ry="9.768" transform="translate(388.09 70.092)" fill="#ffb8b8"/>
        <path id="Path_12" data-name="Path 12" d="M1550.385,730.965a2.572,2.572,0,0,0-3.179.831,6.007,6.007,0,0,0-1.046,3.437,23,23,0,0,1-.255,3.646c-.573,2.635-2.7,4.8-2.855,7.5-.156,2.651,1.619,4.961,2.492,7.462a12.728,12.728,0,0,1,.65,4.857,1.988,1.988,0,0,0,.305,1.516,1.674,1.674,0,0,0,.66.364c4.212,1.518,8.761,1.65,13.225,1.766l7.372.191a2.3,2.3,0,0,0,1.3-.224c.661-.416.75-1.347.761-2.142.1-6.846-.187-13.692-.472-20.533a44.612,44.612,0,0,0-.721-7.4,2.132,2.132,0,0,0-.9-1.577,1.945,1.945,0,0,0-1.52.1c-2.285.871-9.547,4.208-10.263,3.02C1555.112,732.4,1549.981,732,1550.385,730.965Z" transform="translate(-1157.867 -634.295)" fill="#fff"/>
        <path id="Path_13" data-name="Path 13" d="M1534.237,722.322c-.187.136-.372.28-.55.432a10.789,10.789,0,0,0-1.771,1.911,15.264,15.264,0,0,0-2.005,3.877,38.351,38.351,0,0,0-1.6,7.563,18.732,18.732,0,0,0-.253,2.85c.055,3.512,2.081,6.765,2.083,10.279,0,.133,0,.264-.01.4a11.838,11.838,0,0,1-.2,1.713c-.148.825-.362,1.638-.573,2.45a23.754,23.754,0,0,1-2.14,5.927c-.1.181-.216.36-.331.534H1519.6c.057-.179.117-.355.175-.534q1.863-5.656,3.724-11.309c.38-1.153.76-2.311,1.029-3.5a33.86,33.86,0,0,0,.627-4.438q.43-4.639.565-9.3a11.577,11.577,0,0,1,.409-3.312,10.906,10.906,0,0,1,1.3-2.423l2.258-3.482a5.308,5.308,0,0,1,1.505-1.713c.539-.339,1.18-.462,1.747-.747a8.922,8.922,0,0,0,1.026-.7c.849-.616,1.846-1.265,2.578-.635a1.463,1.463,0,0,1,.3.355,1.816,1.816,0,0,1,.112.205C1537.656,720.291,1535.183,721.636,1534.237,722.322Z" transform="translate(-1143.359 -625.47)" fill="#2f2e41"/>
        <path id="Path_14" data-name="Path 14" d="M1569.921,833.324h-33.77c.182-.171.362-.349.536-.534l.076-.08c1.292-1.374,1.586-3.063,2.234-4.851l1.461-4.04a2.107,2.107,0,0,1,.372-.718,1.148,1.148,0,0,1,.513-.315,1.944,1.944,0,0,1,.453-.085,4.9,4.9,0,0,1,.659,0q9.09.48,18.167,1.172l2.344.184c.638.486,1.268,1,1.87,1.545a17.116,17.116,0,0,1,4.622,6.284c.117.3.224.6.313.9C1569.828,832.967,1569.877,833.146,1569.921,833.324Z" transform="translate(-1152.562 -699.287)" fill="#2f2e41"/>
        <path id="Path_15" data-name="Path 15" d="M1161.525,239.067l-6.929-3.719-9.57,1.521-1.98,8.961,4.929-.194,1.376-3.292v3.237l2.275-.089,1.32-5.241.825,5.579,8.084-.169Z" transform="translate(-755.212 -166.665)" fill="#2f2e41"/>
        <path id="Path_16" data-name="Path 16" d="M1617.432,757.043h-7.625c-.055-.176-.107-.355-.156-.534a42.908,42.908,0,0,1-1.182-6.052c-.081-.584-.151-1.172-.216-1.756-.042-.371-.081-.739-.12-1.11a63.294,63.294,0,0,0-2-12.224c-.148-.478-.31-.953-.466-1.428a17.207,17.207,0,0,1-.677-2.511c-.333-1.953-.083-3.976-.427-5.927-.193-1.089-.575-2.047-.807-3.045a6.308,6.308,0,0,1-.172-1.844,3.84,3.84,0,0,1,2.029-1.03,1.056,1.056,0,0,0,.719-.3.946.946,0,0,0,.12-.544,26.841,26.841,0,0,0-.211-3.765c-.052-.438-.117-.875-.2-1.31,0-.021-.007-.04-.01-.061a4.934,4.934,0,0,1,2.042-.283l2.252.005,4.164.013a8.966,8.966,0,0,1,3.8.563,6.135,6.135,0,0,1,2.745,2.882,16.893,16.893,0,0,1,1.24,3.888,5.35,5.35,0,0,1,.13,1.124c.057,3-2.13,6.031-2.349,9.1-.07,1,.01,2-.078,2.994s-.349,1.975-.4,2.973c0,.051-.005.1-.005.155a10.923,10.923,0,0,0,.768,3.8c.662,1.9,1.466,3.747,2.3,5.58.8,1.775,1.625,3.541,2.365,5.34a9.315,9.315,0,0,1,.768,2.639,3.741,3.741,0,0,1-.393,2.132,2.485,2.485,0,0,1-.31.451l-.005.005c-.023.027-.047.053-.07.077Z" transform="translate(-1198.327 -622.222)" fill="#2f2e41"/>
        <path id="Path_17" data-name="Path 17" d="M1662.381,844.377a3.016,3.016,0,0,1-.279,1.022l-.039.093c-.151.366-.3.726-.464,1.089-.078.176-.156.355-.237.534h-4.312a4.9,4.9,0,0,0,.432-.534c.661-.942,1.044-2.087,1.719-3.1a2.4,2.4,0,0,1,.315-.384C1660.6,842.02,1662.449,842.239,1662.381,844.377Z" transform="translate(-1235.538 -713.202)" fill="#ffb8b8"/>
        <path id="Path_18" data-name="Path 18" d="M1656.938,766.145a5.37,5.37,0,0,0,.138-.534c.031-.141.057-.28.078-.422.138-.931.135-1.884.352-2.8.3-1.31,1.219-2.861.466-3.963a4.038,4.038,0,0,0,1.617-.742,1.447,1.447,0,0,0,.438-1.638c-.268-.536-.995-.891-.9-1.486a1.436,1.436,0,0,1,.255-.518,3.958,3.958,0,0,0-.065-4.254c-.237-.347-.529-.651-.745-1.014a6.136,6.136,0,0,1-.539-1.406,26.481,26.481,0,0,0-3.289-6.986,4.678,4.678,0,0,1-.727-1.377,5.822,5.822,0,0,1-.057-1.636,11.157,11.157,0,0,0-1.867-6.076c-.083-.133-.169-.264-.255-.395a34.961,34.961,0,0,0-3.8-4.539,2.443,2.443,0,0,0-1.339,1,3.014,3.014,0,0,0-.258.993c-.37,2.642-.69,5.3-.94,7.955a19.912,19.912,0,0,0-.1,4.035,6.6,6.6,0,0,0,1.479,3.677c.555.624,1.258,1.089,1.859,1.665q.144.14.281.288a9.449,9.449,0,0,1,1.148,1.545,13.581,13.581,0,0,1,1.911,7.987,13.24,13.24,0,0,1-.2,1.505,6.323,6.323,0,0,1-.693,2.028c-.273.462-.633.865-.88,1.342a1.734,1.734,0,0,0-.12,1.55,3.013,3.013,0,0,1,1.075.2,4.579,4.579,0,0,1,2.031,1.588,6.95,6.95,0,0,1,.516.811,10.108,10.108,0,0,1,.516,1.089c.063.147.122.3.18.451a.457.457,0,0,1,.031.083Z" transform="translate(-1226.755 -631.426)" fill="#2f2e41"/>
        <path id="Path_19" data-name="Path 19" d="M1503.526,680.7h-134.86V602.412h134.86ZM1369.9,679.436h132.393v-75.76H1369.9Z" transform="translate(-1030.019 -543.887)" fill="#e6e6e6"/>
        <ellipse id="Ellipse_6" data-name="Ellipse 6" cx="13.875" cy="14.219" rx="13.875" ry="14.219" transform="translate(270.565 265.448)" fill="#e6e6e6"/>
        <ellipse id="Ellipse_7" data-name="Ellipse 7" cx="10.638" cy="10.901" rx="10.638" ry="10.901" transform="translate(273.802 268.766)" fill="#fff"/>
        <path id="Path_20" data-name="Path 20" d="M1244.245,1353.47a.477.477,0,0,1-.342-.146l-10.66-10.923a.505.505,0,0,1,.009-.693.476.476,0,0,1,.676-.009l10.66,10.923a.505.505,0,0,1,.1.541.485.485,0,0,1-.447.307Z" transform="translate(-954.475 -1067.849)" fill="#6c63ff"/>
        <path id="Path_21" data-name="Path 21" d="M1247.961,1363.613l-1.568-1.607a.06.06,0,0,0-.07-.011.063.063,0,0,0-.033.064,1.966,1.966,0,0,0,1.62,1.66.06.06,0,0,0,.062-.034A.063.063,0,0,0,1247.961,1363.613Z" transform="translate(-963.916 -1082.094)" fill="#6c63ff"/>
        <path id="Path_22" data-name="Path 22" d="M1253.547,1354.84l1.571,1.609a.06.06,0,0,0,.07.012.062.062,0,0,0,.033-.064,1.967,1.967,0,0,0-1.622-1.662.06.06,0,0,0-.063.033A.063.063,0,0,0,1253.547,1354.84Z" transform="translate(-968.71 -1077.035)" fill="#6c63ff"/>
        <path id="Path_23" data-name="Path 23" d="M1254.475,1350.318a1.02,1.02,0,0,0,0-1.079,10.4,10.4,0,0,0-3.006-3.12,7.488,7.488,0,0,0-4.117-1.305,6.706,6.706,0,0,0-2.175.366.124.124,0,0,0-.08.089.127.127,0,0,0,.032.116l1.431,1.466a.12.12,0,0,0,.116.033,2.86,2.86,0,0,1,2.744.788,3.029,3.029,0,0,1,.769,2.812.127.127,0,0,0,.032.118l2.058,2.11a.119.119,0,0,0,.163.007,10.6,10.6,0,0,0,2.036-2.4Z" transform="translate(-962.553 -1070.117)" fill="#6c63ff"/>
        <path id="Path_24" data-name="Path 24" d="M1235.425,1357.443a2.883,2.883,0,0,1-2.286-1.137,3.036,3.036,0,0,1-.54-2.544.126.126,0,0,0-.032-.118l-2.024-2.075a.119.119,0,0,0-.164-.007,12.305,12.305,0,0,0-2.049,2.35,1.011,1.011,0,0,0-.02,1.1,10.254,10.254,0,0,0,2.976,3.123,7.378,7.378,0,0,0,4.128,1.292,7.059,7.059,0,0,0,2.2-.359.123.123,0,0,0,.081-.089.126.126,0,0,0-.032-.117l-1.437-1.473a.119.119,0,0,0-.115-.033A2.817,2.817,0,0,1,1235.425,1357.443Z" transform="translate(-951.35 -1074.802)" fill="#6c63ff"/>
        <ellipse id="Ellipse_8" data-name="Ellipse 8" cx="13.875" cy="14.219" rx="13.875" ry="14.219" transform="translate(209.928 265.448)" fill="#e6e6e6"/>
        <ellipse id="Ellipse_9" data-name="Ellipse 9" cx="10.638" cy="10.901" rx="10.638" ry="10.901" transform="translate(213.274 268.766)" fill="#fff"/>
        <path id="Path_25" data-name="Path 25" d="M1062.4,1352.176a5.616,5.616,0,0,1-2.665-.931,17.37,17.37,0,0,1-4.186-3.208,16.248,16.248,0,0,1-3.143-4.288c-1.116-2.079-.925-3.169-.713-3.635a2.876,2.876,0,0,1,1.11-1.22,5.3,5.3,0,0,1,.867-.472l.084-.037a.793.793,0,0,1,.665-.062,1.954,1.954,0,0,1,.632.5,10.779,10.779,0,0,1,1.58,2.4,2.437,2.437,0,0,1,.31.984,1.573,1.573,0,0,1-.386.925c-.04.056-.079.109-.117.16-.231.31-.281.4-.248.56a5.894,5.894,0,0,0,1.4,2.126,5.5,5.5,0,0,0,2.051,1.4c.163.036.252-.018.565-.263l.139-.108a1.509,1.509,0,0,1,.917-.42h0a2.159,2.159,0,0,1,.965.347,11.564,11.564,0,0,1,2.336,1.607,1.985,1.985,0,0,1,.486.646.855.855,0,0,1-.06.683l-.037.085a5.515,5.515,0,0,1-.463.887,2.863,2.863,0,0,1-1.193,1.135A2,2,0,0,1,1062.4,1352.176Z" transform="translate(-834.278 -1065.558)" fill="#6c63ff"/>
        <ellipse id="Ellipse_10" data-name="Ellipse 10" cx="13.875" cy="14.219" rx="13.875" ry="14.219" transform="translate(331.672 265.448)" fill="#e6e6e6"/>
        <ellipse id="Ellipse_11" data-name="Ellipse 11" cx="10.638" cy="10.901" rx="10.638" ry="10.901" transform="translate(334.8 268.766)" fill="#fff"/>
        <path id="Path_26" data-name="Path 26" d="M1428.584,1380.279h-3.876a.5.5,0,0,1,0-.993h3.876a.5.5,0,0,1,0,.993Z" transform="translate(-1081.472 -1094.157)" fill="#6c63ff"/>
        <path id="Path_27" data-name="Path 27" d="M1422.019,1360.632a4.421,4.421,0,0,1-4.361-4.469v-.993a.485.485,0,1,1,.969,0v.993a3.393,3.393,0,1,0,6.784,0v-.993a.485.485,0,1,1,.969,0v.993A4.421,4.421,0,0,1,1422.019,1360.632Z" transform="translate(-1076.785 -1076.993)" fill="#6c63ff"/>
        <path id="Path_28" data-name="Path 28" d="M1431.27,1374.557a.491.491,0,0,1-.484-.5v-2.483a.485.485,0,1,1,.969,0v2.483A.491.491,0,0,1,1431.27,1374.557Z" transform="translate(-1086.156 -1088.435)" fill="#6c63ff"/>
        <path id="Path_29" data-name="Path 29" d="M1426.645,1348.346a2.36,2.36,0,0,1-1.713-.748,2.543,2.543,0,0,1-.71-1.766v-3.445a2.444,2.444,0,0,1,2.4-2.483h.019a2.368,2.368,0,0,1,1.721.719,2.489,2.489,0,0,1,.7,1.763v3.445A2.472,2.472,0,0,1,1426.645,1348.346Z" transform="translate(-1081.471 -1066.694)" fill="#6c63ff"/>
      </g>
    </g>
  </g>
</svg>
