<svg id="undraw_secure_login_pdn4" xmlns="http://www.w3.org/2000/svg" width="972.425" height="676.567" viewBox="0 0 972.425 676.567">
  <ellipse id="Ellipse_1" data-name="Ellipse 1" cx="193.749" cy="14.715" rx="193.749" ry="14.715" transform="translate(0 647.137)" fill="#e6e6e6"/>
  <path id="Path_1" data-name="Path 1" d="M324.272,315.586c33.718-14.341,75.715-5.255,116.729,1.052.382-7.637,5.008-16.932.162-22.26-5.887-6.473-5.345-13.275-1.8-20.115,9.06-17.493-3.92-36.106-17.026-51.582a29.025,29.025,0,0,0-24.225-10.168l-24.277,1.734a29.074,29.074,0,0,0-25.816,20.781h0c-5.8,7.884-8.9,15.746-6.946,23.567-8.683,5.934-10.142,13.1-6.24,21.171,3.308,5.084,3.273,10.033-.151,14.845a68.537,68.537,0,0,0-10.19,20.241Z" transform="translate(-176.174 -165.468)" fill="#2f2e41"/>
  <path id="Path_2" data-name="Path 2" d="M1108.761,659.355H421.543A23.043,23.043,0,0,1,398.5,636.313h0q373.675-43.428,733.3,0h0a23.043,23.043,0,0,1-23.042,23.043Z" transform="translate(-159.379 -74.475)" fill="#2f2e41"/>
  <path id="Path_3" data-name="Path 3" d="M1131.8,723.7l-733.3-1.355,84.987-143,.407-.678V263.506a29.127,29.127,0,0,1,29.131-29.129h500.189a29.127,29.127,0,0,1,29.129,29.131V580.831Z" transform="translate(-159.379 -160.504)" fill="#3f3d56"/>
  <path id="Path_4" data-name="Path 4" d="M493.1,250.957a9.5,9.5,0,0,0-9.488,9.488V547.8a9.5,9.5,0,0,0,9.488,9.488H998.688a9.5,9.5,0,0,0,9.488-9.488V260.445a9.5,9.5,0,0,0-9.488-9.488Z" transform="translate(-140.122 -156.752)" fill="#fff"/>
  <path id="Path_5" data-name="Path 5" d="M498.66,531.718a4.078,4.078,0,0,0-3.694,2.367l-26.187,56.929a4.066,4.066,0,0,0,3.694,5.766h550.7a4.066,4.066,0,0,0,3.636-5.885l-28.464-56.929a4.046,4.046,0,0,0-3.636-2.248Z" transform="translate(-143.562 -93.227)" fill="#2f2e41"/>
  <circle id="Ellipse_2" data-name="Ellipse 2" cx="6.1" cy="6.1" r="6.1" transform="translate(597.64 77.261)" fill="#fff"/>
  <path id="Path_6" data-name="Path 6" d="M653.662,593.619a4.072,4.072,0,0,0-3.926,3.009l-6.569,24.4a4.066,4.066,0,0,0,3.926,5.124H772.017a4.065,4.065,0,0,0,3.841-5.4l-8.445-24.4a4.068,4.068,0,0,0-3.843-2.736Z" transform="translate(-104.052 -79.221)" fill="#2f2e41"/>
  <path id="Path_7" data-name="Path 7" d="M823.162,337.135v5.421H264.306l.421-.677v-4.744Z" transform="translate(59.802 76.28)" fill="#2f2e41"/>
  <circle id="Ellipse_3" data-name="Ellipse 3" cx="94.882" cy="94.882" r="94.882" transform="translate(772.495 0)" fill="#67d0e8"/>
  <path id="Path_8" data-name="Path 8" d="M958.4,295.977H879.779a5.427,5.427,0,0,1-5.422-5.422V243.114a5.428,5.428,0,0,1,5.422-5.422H958.4a5.427,5.427,0,0,1,5.422,5.422v47.441A5.427,5.427,0,0,1,958.4,295.977ZM879.78,243.114v47.441H958.4l0-47.441Z" transform="translate(-51.711 -159.754)" fill="#fff"/>
  <path id="Path_9" data-name="Path 9" d="M939.735,251.118h-48.8V229.43c0-15.708,10.261-27.109,24.4-27.109s24.4,11.4,24.4,27.109ZM896.36,245.7h37.953V229.43c0-12.769-7.8-21.687-18.976-21.687s-18.976,8.918-18.976,21.687Z" transform="translate(-47.96 -167.757)" fill="#fff"/>
  <circle id="Ellipse_4" data-name="Ellipse 4" cx="5.422" cy="5.422" r="5.422" transform="translate(861.955 100.304)" fill="#fff"/>
  <path id="Path_10" data-name="Path 10" d="M930.251,441.838H539.515a7.244,7.244,0,0,1-7.236-7.236V337.677a7.244,7.244,0,0,1,7.236-7.236H930.251a7.244,7.244,0,0,1,7.236,7.236V434.6A7.244,7.244,0,0,1,930.251,441.838Zm-390.736-108.5a4.346,4.346,0,0,0-4.341,4.341V434.6a4.346,4.346,0,0,0,4.341,4.341H930.251a4.346,4.346,0,0,0,4.341-4.342V337.677a4.346,4.346,0,0,0-4.341-4.342Z" transform="translate(-129.11 -138.768)" fill="#e6e6e6"/>
  <circle id="Ellipse_5" data-name="Ellipse 5" cx="29.475" cy="29.475" r="29.475" transform="translate(441.642 214.177)" fill="#e6e6e6"/>
  <path id="Path_11" data-name="Path 11" d="M644.109,356.8a4.912,4.912,0,1,0,0,9.825H875.7a4.912,4.912,0,0,0,0-9.825Z" transform="translate(-104.919 -132.803)" fill="#e6e6e6"/>
  <path id="Path_12" data-name="Path 12" d="M644.109,380.842a4.912,4.912,0,1,0,0,9.825h99.653a4.912,4.912,0,1,0,0-9.825Z" transform="translate(-104.919 -127.364)" fill="#e6e6e6"/>
  <path id="Path_13" data-name="Path 13" d="M480.518,390.232l-72.23,38.4-.914-32c23.576-3.936,46.005-10.788,66.745-21.943l7.554-18.664a12.652,12.652,0,0,1,21.5-3.284h0a12.652,12.652,0,0,1-1.114,17.252Z" transform="translate(-157.371 -134.768)" fill="#ffb8b8"/>
  <path id="Path_14" data-name="Path 14" d="M323.19,572.2h0a14.192,14.192,0,0,1,1.8-11.482l15.867-24.351a27.729,27.729,0,0,1,35.972-9.49h0c-6.668,11.351-5.739,21.309,2.3,29.962A144.245,144.245,0,0,0,344.877,580.2,14.193,14.193,0,0,1,323.19,572.2Z" transform="translate(-176.532 -95.024)" fill="#2f2e41"/>
  <path id="Path_15" data-name="Path 15" d="M494.268,556.985h0A27.227,27.227,0,0,1,471.127,570.2l-105.41.8-4.572-26.515,46.63-13.715L368.46,500.6l42.972-50.287,78.051,72.747a27.227,27.227,0,0,1,4.784,33.925Z" transform="translate(-167.831 -111.646)" fill="#2f2e41"/>
  <path id="Path_16" data-name="Path 16" d="M360.13,751.816H335.443c-22.165-151.931-44.726-304.287,21.943-361.152l78.631,12.8L425.96,470.209,382.073,520.5Z" transform="translate(-178.701 -125.142)" fill="#2f2e41"/>
  <path id="Path_17" data-name="Path 17" d="M378.537,721.306h0a14.193,14.193,0,0,1-11.482-1.8l-26.8-3.6a27.728,27.728,0,0,1-9.492-35.972h0c11.351,6.668,21.309,5.738,29.962-2.3,6.114,12.345,16.188,11.592,25.809,21.993a14.192,14.192,0,0,1-7.992,21.688Z" transform="translate(-175.408 -60.214)" fill="#2f2e41"/>
  <path id="Path_18" data-name="Path 18" d="M407.607,319.542l-45.715-10.972c7.593-15.542,8.218-32.835,4.572-51.2l31.087-.914C398.523,279.294,401.47,300.632,407.607,319.542Z" transform="translate(-167.662 -155.508)" fill="#ffb8b8"/>
  <path id="Path_19" data-name="Path 19" d="M425.211,453.937c-33.279,22.677-56.793.776-74.737-33.015,2.493-20.677-1.544-45.421-9.021-72.308a49.219,49.219,0,0,1,30.05-59.352h0l39.315,16.458c33.383,27.211,39.954,56.686,27.429,87.774Z" transform="translate(-172.702 -148.086)" fill="#67d0e8"/>
  <path id="Path_20" data-name="Path 20" d="M346.459,333.459l-36.572,19.2,64.916,38.4,9.033,22.281a11.817,11.817,0,0,1-7.1,15.611h0a11.817,11.817,0,0,1-15.649-10.478l-.913-15.528-82.507-27.228a19.293,19.293,0,0,1-12.106-11.786h0a19.293,19.293,0,0,1,7.238-22.444l66.347-45.517Z" transform="translate(-189.717 -146.567)" fill="#ffb8b8"/>
  <path id="Path_21" data-name="Path 21" d="M370.256,338.9c-15.253-6.684-29.123.577-46.63,6.4l-2.743-48.458c17.384-9.265,33.958-11.763,49.373-4.572Z" transform="translate(-176.941 -148.348)" fill="#67d0e8"/>
  <circle id="Ellipse_6" data-name="Ellipse 6" cx="29.188" cy="29.188" r="29.188" transform="translate(182.373 66.574)" fill="#ffb8b8"/>
  <path id="Path_22" data-name="Path 22" d="M416.492,254.056c-28.9,2.83-50.919-1.9-64.992-15.353V227.866h62.539Z" transform="translate(-170.013 -161.977)" fill="#2f2e41"/>
</svg>
