<svg xmlns="http://www.w3.org/2000/svg" width="47.669" height="30.335" viewBox="0 0 47.669 30.335">
  <path id="ic_people_24px" d="M33.5,18A6.5,6.5,0,1,0,27,11.5,6.473,6.473,0,0,0,33.5,18ZM16.167,18a6.5,6.5,0,1,0-6.5-6.5A6.473,6.473,0,0,0,16.167,18Zm0,4.334C11.119,22.334,1,24.869,1,29.918v5.417H31.335V29.918C31.335,24.869,21.216,22.334,16.167,22.334Zm17.334,0c-.628,0-1.343.043-2.1.108,2.513,1.82,4.269,4.269,4.269,7.475v5.417h13V29.918C48.669,24.869,38.55,22.334,33.5,22.334Z" transform="translate(-1 -5)"/>
</svg>
